mtllib materials.mtl
v 0.2582364 0.2794511 0.1659743
v 0.2732364 0.2794511 0.1659743
v 0.2732364 -0.280376 0.1659743
v 0.2582364 -0.280376 0.1659743
v 0.2807364 0.2794511 0.152984
v 0.2807364 -0.280376 0.152984
v 0.2732364 0.2794511 0.1399936
v 0.2732364 -0.280376 0.1399936
v 0.2582364 0.2794511 0.1399936
v 0.2582364 0.2576098 0.1399936
v 0.2582364 0.2357686 0.1399936
v 0.2582364 0.192086 0.1399936
v 0.2582364 0.1047208 0.1399936
v 0.2582364 0.01735568 0.1399936
v 0.2582364 -0.02632689 0.1399936
v 0.2582364 -0.04816818 0.1399936
v 0.2582364 -0.07000959 0.1399936
v 0.2582364 -0.280376 0.1399936
v 0.2507364 0.2794511 0.152984
v -0.09086612 0.2794511 -0.04424036
v -0.08336613 0.2794511 -0.05723071
v -0.06201601 0.2794511 -0.04490417
v -0.04066581 0.2794511 -0.03257763
v 0.002034515 0.2794511 -0.007924616
v 0.0874351 0.2794511 0.04138148
v 0.1728357 0.2794511 0.09068751
v 0.2155361 0.2794511 0.1153406
v 0.2368862 0.2794511 0.1276671
v 0.2507364 -0.280376 0.152984
v 0.2507364 -0.06967914 0.152984
v -0.09086612 -0.06967914 -0.04424036
v 0.2368862 -0.07000959 0.1276671
v 0.2155361 -0.07000959 0.1153406
v 0.1728357 -0.07000959 0.09068751
v 0.0874351 -0.07000959 0.04138148
v 0.002034515 -0.07000959 -0.007924616
v -0.04066581 -0.07000959 -0.03257763
v -0.06201601 -0.07000959 -0.04490417
v -0.08336613 -0.07000959 -0.05723071
v 0.2368862 -0.04816818 0.1276671
v -0.08336616 -0.04816818 -0.05723071
v -0.08336616 -0.02632689 -0.05723071
v -0.08336616 0.01735568 -0.05723071
v -0.08336613 0.1047208 -0.05723071
v -0.08336613 0.192086 -0.05723071
v -0.08336613 0.2357686 -0.05723071
v -0.08336613 0.2576098 -0.05723071
v 0.002034515 0.2576098 -0.007924616
v 0.0874351 0.2576098 0.04138148
v 0.1728357 0.2576098 0.09068751
v -0.04066584 0.2576098 -0.03257763
v -0.06201601 0.2576098 -0.04490417
v 0.2155361 0.2576098 0.1153406
v 0.2368862 0.2576098 0.1276671
v 0.2368862 0.192086 0.1276671
v 0.2368862 0.1047208 0.1276671
v 0.2368862 0.01735568 0.1276671
v 0.2368862 -0.02632689 0.1276671
v -0.06201601 0.01735568 -0.04490417
v -0.06201601 0.1047208 -0.04490417
v -0.06201604 -0.02632689 -0.04490417
v -0.06201604 -0.04816818 -0.04490417
v 0.2155361 0.1047208 0.1153406
v 0.2155361 0.01735568 0.1153406
v 0.2155361 -0.02632689 0.1153406
v 0.2155361 -0.04816818 0.1153406
v 0.1728357 0.1047208 0.09068751
v 0.1728357 0.01735568 0.09068751
v 0.1728357 -0.02632689 0.09068751
v 0.1728357 -0.04816818 0.09068751
v 0.0874351 0.1047208 0.04138148
v 0.0874351 0.01735568 0.04138148
v 0.0874351 -0.02632689 0.04138148
v 0.0874351 -0.04816818 0.04138148
v 0.002034515 0.1047208 -0.007924616
v 0.002034515 0.01735568 -0.007924616
v 0.002034515 -0.02632689 -0.007924616
v 0.002034515 -0.04816818 -0.007924616
v -0.04066584 0.1047208 -0.03257763
v -0.04066584 0.01735568 -0.03257763
v -0.04066584 -0.02632689 -0.03257763
v -0.04066584 -0.04816818 -0.03257763
v 0.2368862 0.2357686 0.1276671
v 0.2155361 0.192086 0.1153406
v 0.2155361 0.2357686 0.1153406
v 0.1728357 0.192086 0.09068751
v 0.1728357 0.2357686 0.09068751
v 0.0874351 0.192086 0.04138148
v 0.0874351 0.2357686 0.04138148
v 0.002034515 0.192086 -0.007924616
v 0.002034515 0.2357686 -0.007924616
v -0.04066584 0.192086 -0.03257763
v -0.04066584 0.2357686 -0.03257763
v -0.06201601 0.192086 -0.04490417
v -0.06201601 0.2357686 -0.04490417
v -0.1099351 -0.2794513 -0.05437183
v -0.1024351 -0.2794513 -0.06736219
v -0.1024352 0.280376 -0.06736219
v -0.1099352 0.280376 -0.05437183
v -0.08743513 -0.2794513 -0.06736219
v -0.08743522 0.280376 -0.06736219
v -0.0799351 -0.2794513 -0.05437183
v -0.07993522 0.280376 -0.05437183
v -0.08743513 -0.2794513 -0.04138142
v -0.08743522 0.280376 -0.04138148
v -0.1024351 -0.2794513 -0.04138148
v -0.1024352 0.280376 -0.04138148
vn -1.106889E-07 -4.716328E-08 1
vn 0.8660253 -2.588648E-08 0.5000002
vn 0.8660254 -2.747105E-08 -0.5000001
vn -7.391739E-07 -4.232283E-08 -1
vn 5.435852E-08 1 -1.235393E-07
vn -0.8660254 -2.848732E-08 0.5000001
vn -2.249991E-07 -1 2.148641E-07
vn -7.150428E-09 1 1.872304E-07
vn -0.8660252 -5.595623E-10 -0.5000004
vn -0.5000001 -8.039845E-09 0.8660254
vn -0.01101183 -0.9997575 0.01907302
vn 0.5000008 2.179738E-09 -0.866025
vn -0.8660258 7.613399E-08 -0.4999994
vn 0.5000003 -3.496048E-07 -0.8660253
vn 0.4999997 -3.389445E-07 -0.8660256
vn 0.4999995 -3.496045E-07 -0.8660257
vn 0.5000002 -6.800682E-07 -0.8660253
vn 0.5000003 2.179095E-09 -0.8660253
vn 0.499999 2.179267E-09 -0.866026
vn 0.5000011 -3.389446E-07 -0.8660248
vn 0.5000008 -4.85961E-10 -0.866025
vn 0.5000008 2.179043E-09 -0.866025
vn 0.5000008 -3.15098E-09 -0.866025
vn 0.5000008 2.179041E-09 -0.866025
vn 0.5000013 2.178506E-09 -0.8660247
vn 0.5000011 -1.737136E-07 -0.8660248
vn 0.5000011 -3.389451E-07 -0.8660248
vn 0.5000011 1.025547E-06 -0.8660248
vn 0.499999 2.179126E-09 -0.866026
vn 0.499999 -3.15091E-09 -0.866026
vn 0.499999 2.179168E-09 -0.866026
vn 0.499999 2.179795E-09 -0.866026
vn 0.5000003 2.179081E-09 -0.8660253
vn 0.5000003 -3.151014E-09 -0.8660253
vn 0.5000003 -8.480951E-09 -0.8660253
vn 0.5000003 2.179834E-09 -0.8660253
vn 0.4999996 -4.859149E-10 -0.8660256
vn 0.4999996 2.179161E-09 -0.8660256
vn 0.4999996 -8.481013E-09 -0.8660256
vn 0.4999997 3.433016E-07 -0.8660256
vn 0.5000004 -3.151034E-09 -0.8660252
vn 0.5000004 2.179131E-09 -0.8660252
vn 0.5000004 2.178974E-09 -0.8660252
vn 0.5000003 3.433017E-07 -0.8660253
vn 0.4999995 -8.576693E-08 -0.8660257
vn 0.4999994 -3.151248E-09 -0.8660258
vn 0.4999994 2.179257E-09 -0.8660258
vn 0.4999995 3.433009E-07 -0.8660257
vn 0.5 -8.310171E-08 -0.8660254
vn 0.5000003 -3.150942E-09 -0.8660253
vn 0.5 -3.389443E-07 -0.8660254
vn 0.5000001 1.025545E-06 -0.8660254
vn 0.5000008 -3.150979E-09 -0.866025
vn 0.5000008 2.179056E-09 -0.866025
vn 0.5000005 -3.709248E-07 -0.8660251
vn 0.499999 -3.150968E-09 -0.866026
vn 0.499999 2.179054E-09 -0.866026
vn 0.499999 2.179138E-09 -0.866026
vn 0.5000003 -3.150956E-09 -0.8660253
vn 0.5000003 2.17911E-09 -0.8660253
vn 0.5000003 2.179109E-09 -0.8660253
vn 0.4999996 -4.859008E-10 -0.8660256
vn 0.4999996 2.179104E-09 -0.8660256
vn 0.4999996 2.178962E-09 -0.8660256
vn 0.5000004 2.179117E-09 -0.8660252
vn 0.5000004 2.179145E-09 -0.8660252
vn 0.5000004 2.178989E-09 -0.8660252
vn 0.4999995 8.745999E-08 -0.8660257
vn 0.4999994 -3.150652E-09 -0.8660258
vn 0.4999994 2.179328E-09 -0.8660257
vn 0.5 8.479486E-08 -0.8660254
vn 0.5000003 -3.150884E-09 -0.8660253
vn 0.5000003 2.179323E-09 -0.8660253
vn 0.5000013 -4.865697E-10 -0.8660247
vn 0.5000013 -3.150593E-09 -0.8660247
vn 0.5000013 2.178947E-09 -0.8660247
vn -0.8660253 -8.748379E-08 -0.5000004
vn -2.483597E-09 2.534021E-08 -1
vn 0.8660257 1.615719E-07 -0.4999995
vn 0.8660253 1.761034E-07 0.5000004
vn -2.856054E-08 2.822596E-08 1
vn -0.8660257 -1.056135E-07 0.4999995
vn -4.537389E-07 1 8.687635E-08
vn -1.055983E-08 -1 -8.687652E-08
vt 0.1425394 0.1461982
vt 0.1418686 0.1475399
vt 0.09179612 0.1225036
vt 0.09246694 0.121162
vt 0.181369 0.07339536
vt 0.1805806 0.07467146
vt 0.1329543 0.04524692
vt 0.1337427 0.04397083
vt 0.02531347 0.2160806
vt 0.02391196 0.2155461
vt 0.04386247 0.1632389
vt 0.04526398 0.1637734
vt -0.1418686 0.1475398
vt -0.1425394 0.1461982
vt -0.1405859 0.1452214
vt -0.1386324 0.1442446
vt -0.1347253 0.1422911
vt -0.1269111 0.138384
vt -0.1190969 0.1344769
vt -0.1151898 0.1325233
vt -0.1132363 0.1315466
vt -0.1112827 0.1305698
vt -0.09246699 0.1211619
vt -0.09179617 0.1225036
vt -0.09311153 0.03790986
vt -0.09408263 0.03676664
vt -0.06401985 0.01122987
vt -0.06304875 0.01237309
vt -0.06492767 0.01396913
vt -0.0668066 0.01556518
vt -0.07056444 0.01875728
vt -0.07808014 0.02514147
vt -0.08559583 0.03152566
vt -0.08935368 0.03471776
vt -0.0912326 0.03631381
vt -0.02391198 0.2155461
vt -0.0253135 0.2160806
vt -0.045264 0.1637734
vt -0.04386248 0.1632389
vt -0.0363539 0.1829253
vt 0.09555824 0.03703601
vt 0.09606274 0.03844862
vt 0.09509163 0.03959184
vt 0.09361602 0.03932245
vt 0.09311153 0.03790984
vt 0.09408263 0.03676662
vt -0.09408258 0.03676666
vt -0.09311148 0.03790988
vt -0.09361599 0.03932249
vt -0.0950916 0.03959188
vt -0.0960627 0.03844866
vt -0.09555819 0.03703605
vt -0.1516674 0.05504506
vt -0.1337427 0.04397083
vt -0.1329543 0.04524692
vt -0.1508509 0.05630379
vt 0.09980234 0.1906861
vt 0.07156757 0.1701503
vt 0.09476893 0.1382506
vt 0.1230037 0.1587863
vt 0.09609233 0.03478412
vt 0.09511314 0.03592089
vt 0.09324525 0.03431194
vt 0.09137737 0.03270299
vt 0.0876416 0.02948508
vt 0.08017007 0.02304926
vt 0.07269853 0.01661345
vt 0.06896276 0.01339554
vt 0.06709488 0.01178658
vt 0.06522699 0.01017763
vt 0.06620618 0.009040857
vt -0.07154075 0.1701309
vt -0.0733071 0.1714157
vt -0.07475718 0.1694219
vt -0.07299083 0.1681372
vt -0.1805806 0.07467148
vt -0.181369 0.07339539
vt -0.1516674 0.05504507
vt -0.1508509 0.05630379
vt -0.152709 0.05745178
vt -0.1545671 0.05859976
vt -0.1582833 0.06089572
vt -0.1657157 0.06548764
vt -0.1731482 0.07007956
vt -0.1768644 0.07237552
vt -0.1787225 0.0735235
vt -0.1114029 0.1747363
vt -0.1172033 0.1667613
vt -0.1154369 0.1654766
vt -0.1096366 0.1734516
vt -0.1056027 0.1827111
vt -0.111403 0.1747362
vt -0.1096367 0.1734515
vt -0.1038363 0.1814264
vt -0.1172034 0.1667612
vt -0.1201036 0.1627738
vt -0.1183372 0.1614891
vt -0.115437 0.1654765
vt -0.1201034 0.1627739
vt -0.1215535 0.1607801
vt -0.1197872 0.1594954
vt -0.1183371 0.1614892
vt -0.1027025 0.1866986
vt -0.1056026 0.1827112
vt -0.1038363 0.1814265
vt -0.1009361 0.1854139
vt -0.1012526 0.1886922
vt -0.1027027 0.1866985
vt -0.1009363 0.1854138
vt -0.09948623 0.1874075
vt -0.1215535 0.1607802
vt -0.1230035 0.1587865
vt -0.1212372 0.1575018
vt -0.1197871 0.1594955
vt -0.0856715 0.1804086
vt -0.09273687 0.1855474
vt -0.09418695 0.1835536
vt -0.08712159 0.1784148
vt -0.07860614 0.1752698
vt -0.0856715 0.1804086
vt -0.08712159 0.1784148
vt -0.08005622 0.173276
vt -0.07507344 0.1727003
vt -0.07860612 0.1752698
vt -0.08005621 0.173276
vt -0.07652353 0.1707066
vt -0.0733071 0.1714157
vt -0.07507344 0.1727003
vt -0.07652353 0.1707066
vt -0.07475718 0.1694219
vt -0.1088728 0.1485089
vt -0.1018075 0.1433701
vt -0.1003574 0.1453638
vt -0.1074227 0.1505026
vt -0.1018075 0.14337
vt -0.09827478 0.1408006
vt -0.09682469 0.1427944
vt -0.1003574 0.1453638
vt -0.09827475 0.1408007
vt -0.09650841 0.139516
vt -0.09505833 0.1415097
vt -0.09682467 0.1427944
vt -0.09650859 0.1395159
vt -0.09474224 0.1382312
vt -0.09329216 0.1402249
vt -0.09505852 0.1415096
vt -0.08857191 0.1764209
vt -0.08150654 0.1712821
vt -0.08005645 0.1732759
vt -0.08712183 0.1784147
vt -0.08150654 0.1712821
vt -0.07797385 0.1687128
vt -0.07652377 0.1707065
vt -0.08005645 0.1732759
vt -0.07797385 0.1687128
vt -0.0762075 0.167428
vt -0.07475742 0.1694218
vt -0.07652377 0.1707065
vt -0.0762075 0.167428
vt -0.07444115 0.1661433
vt -0.07299107 0.1681371
vt -0.07475742 0.1694218
vt -0.09147191 0.1724336
vt -0.08440654 0.1672948
vt -0.08150636 0.1712823
vt -0.08857173 0.1764211
vt -0.08440654 0.1672948
vt -0.08087385 0.1647254
vt -0.07797368 0.1687129
vt -0.08150636 0.1712823
vt -0.08087385 0.1647254
vt -0.07910751 0.1634407
vt -0.07620734 0.1674282
vt -0.07797368 0.1687129
vt -0.07910751 0.1634407
vt -0.07734115 0.162156
vt -0.07444099 0.1661434
vt -0.07620734 0.1674282
vt -0.09727232 0.1644586
vt -0.09020696 0.1593198
vt -0.08440661 0.1672947
vt -0.09147198 0.1724335
vt -0.09020696 0.1593198
vt -0.08667427 0.1567504
vt -0.08087393 0.1647253
vt -0.08440661 0.1672947
vt -0.08667427 0.1567504
vt -0.08490793 0.1554657
vt -0.07910759 0.1634406
vt -0.08087393 0.1647253
vt -0.08490797 0.1554657
vt -0.08314162 0.154181
vt -0.07734128 0.1621559
vt -0.07910763 0.1634406
vt -0.1030726 0.1564837
vt -0.09600722 0.1513449
vt -0.09020688 0.1593198
vt -0.09727225 0.1644586
vt -0.09600722 0.1513449
vt -0.09247454 0.1487755
vt -0.0866742 0.1567505
vt -0.09020688 0.1593198
vt -0.09247454 0.1487755
vt -0.09070819 0.1474908
vt -0.08490784 0.1554658
vt -0.0866742 0.1567505
vt -0.09070824 0.1474908
vt -0.08894189 0.1462061
vt -0.08314155 0.154181
vt -0.0849079 0.1554657
vt -0.1059728 0.1524962
vt -0.09890749 0.1473574
vt -0.09600731 0.1513449
vt -0.1030727 0.1564836
vt -0.09890752 0.1473573
vt -0.09537483 0.144788
vt -0.09247465 0.1487754
vt -0.09600735 0.1513448
vt -0.09537482 0.144788
vt -0.09360848 0.1435033
vt -0.0907083 0.1474907
vt -0.09247465 0.1487754
vt -0.0936085 0.1435032
vt -0.09184214 0.1422185
vt -0.08894198 0.146206
vt -0.09070833 0.1474907
vt -0.1074229 0.1505025
vt -0.1003575 0.1453637
vt -0.09890742 0.1473574
vt -0.1059728 0.1524962
vt -0.1003575 0.1453637
vt -0.0968248 0.1427943
vt -0.09537471 0.1447881
vt -0.0989074 0.1473574
vt -0.09682479 0.1427943
vt -0.09505845 0.1415096
vt -0.09360836 0.1435033
vt -0.0953747 0.144788
vt -0.09505863 0.1415095
vt -0.09329227 0.1402248
vt -0.09184219 0.1422186
vt -0.09360854 0.1435033
vt -0.09273687 0.1855474
vt -0.09626956 0.1881168
vt -0.09771964 0.186123
vt -0.09418695 0.1835536
vt -0.09626955 0.1881168
vt -0.09803589 0.1894014
vt -0.09948598 0.1874077
vt -0.09771963 0.186123
vt -0.09803587 0.1894015
vt -0.09980221 0.1906862
vt -0.1012523 0.1886924
vt -0.09948596 0.1874077
vt -0.09563728 0.1815597
vt -0.08857191 0.1764209
vt -0.08712183 0.1784147
vt -0.0941872 0.1835535
vt -0.09916997 0.1841291
vt -0.09563728 0.1815597
vt -0.0941872 0.1835535
vt -0.09771989 0.1861228
vt -0.1009363 0.1854138
vt -0.09916997 0.1841291
vt -0.09771989 0.1861228
vt -0.09948623 0.1874075
vt -0.09853728 0.1775724
vt -0.09147191 0.1724336
vt -0.08857173 0.1764211
vt -0.09563711 0.1815598
vt -0.10207 0.1801418
vt -0.09853728 0.1775724
vt -0.09563711 0.1815598
vt -0.09916979 0.1841293
vt -0.1038363 0.1814265
vt -0.10207 0.1801418
vt -0.09916979 0.1841293
vt -0.1009361 0.1854139
vt -0.1043377 0.1695974
vt -0.09727232 0.1644586
vt -0.09147198 0.1724335
vt -0.09853736 0.1775723
vt -0.1078704 0.1721668
vt -0.1043377 0.1695974
vt -0.09853736 0.1775723
vt -0.10207 0.1801417
vt -0.1096367 0.1734515
vt -0.1078704 0.1721668
vt -0.10207 0.1801417
vt -0.1038364 0.1814264
vt -0.110138 0.1616225
vt -0.1030726 0.1564837
vt -0.09727225 0.1644586
vt -0.1043376 0.1695974
vt -0.1136706 0.1641919
vt -0.110138 0.1616225
vt -0.1043376 0.1695974
vt -0.1078703 0.1721669
vt -0.115437 0.1654766
vt -0.1136706 0.1641919
vt -0.1078703 0.1721669
vt -0.1096366 0.1734515
vt -0.1130382 0.1576349
vt -0.1059729 0.1524962
vt -0.1030727 0.1564836
vt -0.1101381 0.1616224
vt -0.1165709 0.1602044
vt -0.1130383 0.1576349
vt -0.1101381 0.1616224
vt -0.1136708 0.1641918
vt -0.1183373 0.161489
vt -0.1165709 0.1602043
vt -0.1136708 0.1641918
vt -0.1154371 0.1654765
vt -0.1144883 0.1556413
vt -0.1074229 0.1505025
vt -0.1059728 0.1524962
vt -0.1130382 0.157635
vt -0.1180209 0.1582107
vt -0.1144882 0.1556413
vt -0.1130381 0.157635
vt -0.1165708 0.1602044
vt -0.1197873 0.1594954
vt -0.1180209 0.1582107
vt -0.1165708 0.1602044
vt -0.1183372 0.1614891
vt -0.1159382 0.1536477
vt -0.1088728 0.1485089
vt -0.1074227 0.1505026
vt -0.1144881 0.1556414
vt -0.1194709 0.1562171
vt -0.1159382 0.1536477
vt -0.1144881 0.1556414
vt -0.1180208 0.1582108
vt -0.1212372 0.1575018
vt -0.1194709 0.1562171
vt -0.1180208 0.1582108
vt -0.1197871 0.1594955
vt -0.1338614 0.04395472
vt -0.133073 0.04523082
vt -0.1806992 0.07465536
vt -0.1814876 0.07337926
vt -0.1086794 0.08894391
vt -0.1080086 0.09028555
vt -0.158081 0.1153218
vt -0.1587519 0.1139801
vt 0.01020156 0.1504992
vt 0.01160308 0.1510337
vt -0.008347386 0.2033409
vt -0.009748903 0.2028064
vt 0.133073 0.0452308
vt 0.1338614 0.0439547
vt 0.1814876 0.07337923
vt 0.1806992 0.07465533
vt 0.1080086 0.09028555
vt 0.1086794 0.08894391
vt 0.1587519 0.1139801
vt 0.158081 0.1153218
vt -0.01160309 0.1510337
vt -0.01020157 0.1504992
vt 0.009748885 0.2028064
vt 0.008347369 0.2033409
vt -0.06242436 0.009774919
vt -0.06145326 0.01091814
vt -0.06195777 0.01233075
vt -0.06343337 0.01260014
vt -0.06440447 0.01145692
vt -0.06389997 0.01004431
vt 0.06389995 0.01004423
vt 0.06440446 0.01145684
vt 0.06343335 0.01260006
vt 0.06195774 0.01233067
vt 0.06145323 0.01091806
vt 0.06242434 0.009774834
o group205358114
g mesh205358114
usemtl mat22
f 4/4/1 3/3/1 2/2/1 1/1/1
f 3/8/2 6/7/2 5/6/2 2/5/2
f 6/12/3 8/11/3 7/10/3 5/9/3
f 8/24/4 18/23/4 17/22/4 16/21/4 15/20/4 14/19/4 13/18/4 12/17/4 11/16/4 10/15/4 9/14/4 7/13/4
f 28/35/5 27/34/5 26/33/5 25/32/5 24/31/5 23/30/5 22/29/5 21/28/5 20/27/5 19/26/5 9/25/5
f 30/40/6 29/39/6 4/38/6 1/37/6 19/36/6
f 29/46/7 18/45/7 8/44/7 6/43/7 3/42/7 4/41/7
f 1/52/8 2/51/8 5/50/8 7/49/8 9/48/8 19/47/8
f 17/56/9 18/55/9 29/54/9 30/53/9
f 20/60/10 31/59/10 30/58/10 19/57/10
f 31/71/11 39/70/11 38/69/11 37/68/11 36/67/11 35/66/11 34/65/11 33/64/11 32/63/11 17/62/11 30/61/11
f 47/86/13 46/85/13 45/84/13 44/83/13 43/82/13 42/81/13 41/80/13 39/79/13 31/78/13 20/77/13 21/76/13
usemtl mat17
f 32/75/12 40/74/12 16/73/12 17/72/12
f 49/90/14 48/89/14 24/88/14 25/87/14
f 50/94/15 49/93/15 25/92/15 26/91/15
f 48/98/16 51/97/16 23/96/16 24/95/16
f 51/102/17 52/101/17 22/100/17 23/99/17
f 53/106/18 50/105/18 26/104/18 27/103/18
f 54/110/19 53/109/19 27/108/19 28/107/19
f 52/114/20 47/113/20 21/112/20 22/111/20
f 56/118/21 55/117/21 12/116/21 13/115/21
f 57/122/22 56/121/22 13/120/22 14/119/22
f 58/126/23 57/125/23 14/124/23 15/123/23
f 40/130/24 58/129/24 15/128/24 16/127/24
f 60/134/25 59/133/25 43/132/25 44/131/25
f 59/138/26 61/137/26 42/136/26 43/135/26
f 61/142/27 62/141/27 41/140/27 42/139/27
f 62/146/28 38/145/28 39/144/28 41/143/28
f 40/162/32 32/161/32 33/160/32 66/159/32
f 66/178/36 33/177/36 34/176/36 70/175/36
f 70/194/40 34/193/40 35/192/40 74/191/40
f 74/210/44 35/209/44 36/208/44 78/207/44
f 78/226/48 36/225/48 37/224/48 82/223/48
f 82/242/52 37/241/52 38/240/52 62/239/52
f 55/246/53 83/245/53 11/244/53 12/243/53
f 83/250/54 54/249/54 10/248/54 11/247/54
f 54/254/55 28/253/55 9/252/55 10/251/55
f 94/330/74 60/329/74 44/328/74 45/327/74
f 95/334/75 94/333/75 45/332/75 46/331/75
f 52/338/76 95/337/76 46/336/76 47/335/76
usemtl mat21
f 56/150/29 57/149/29 64/148/29 63/147/29
f 57/154/30 58/153/30 65/152/30 64/151/30
f 58/158/31 40/157/31 66/156/31 65/155/31
f 63/166/33 64/165/33 68/164/33 67/163/33
f 64/170/34 65/169/34 69/168/34 68/167/34
f 65/174/35 66/173/35 70/172/35 69/171/35
f 67/182/37 68/181/37 72/180/37 71/179/37
f 68/186/38 69/185/38 73/184/38 72/183/38
f 69/190/39 70/189/39 74/188/39 73/187/39
f 71/198/41 72/197/41 76/196/41 75/195/41
f 72/202/42 73/201/42 77/200/42 76/199/42
f 73/206/43 74/205/43 78/204/43 77/203/43
f 75/214/45 76/213/45 80/212/45 79/211/45
f 76/218/46 77/217/46 81/216/46 80/215/46
f 77/222/47 78/221/47 82/220/47 81/219/47
f 79/230/49 80/229/49 59/228/49 60/227/49
f 80/234/50 81/233/50 61/232/50 59/231/50
f 81/238/51 82/237/51 62/236/51 61/235/51
f 55/258/56 56/257/56 63/256/56 84/255/56
f 83/262/57 55/261/57 84/260/57 85/259/57
f 54/266/58 83/265/58 85/264/58 53/263/58
f 84/270/59 63/269/59 67/268/59 86/267/59
f 85/274/60 84/273/60 86/272/60 87/271/60
f 53/278/61 85/277/61 87/276/61 50/275/61
f 86/282/62 67/281/62 71/280/62 88/279/62
f 87/286/63 86/285/63 88/284/63 89/283/63
f 50/290/64 87/289/64 89/288/64 49/287/64
f 88/294/65 71/293/65 75/292/65 90/291/65
f 89/298/66 88/297/66 90/296/66 91/295/66
f 49/302/67 89/301/67 91/300/67 48/299/67
f 90/306/68 75/305/68 79/304/68 92/303/68
f 91/310/69 90/309/69 92/308/69 93/307/69
f 48/314/70 91/313/70 93/312/70 51/311/70
f 92/318/71 79/317/71 60/316/71 94/315/71
f 93/322/72 92/321/72 94/320/72 95/319/72
f 51/326/73 93/325/73 95/324/73 52/323/73
o group176403894
g mesh176403894
usemtl mat22
f 99/342/77 98/341/77 97/340/77 96/339/77
f 98/346/78 101/345/78 100/344/78 97/343/78
f 101/350/79 103/349/79 102/348/79 100/347/79
f 103/354/80 105/353/80 104/352/80 102/351/80
f 105/358/81 107/357/81 106/356/81 104/355/81
f 107/362/82 99/361/82 96/360/82 106/359/82
f 107/368/83 105/367/83 103/366/83 101/365/83 98/364/83 99/363/83
f 96/374/84 97/373/84 100/372/84 102/371/84 104/370/84 106/369/84
